solid OpenSCAD_Model
  facet normal 0 0 1
    outer loop
      vertex 0 1 1
      vertex 1 2 1
      vertex 0 2 1
    endloop
  endfacet
  facet normal 0 0 1
    outer loop
      vertex 1 2 1
      vertex 0 1 1
      vertex 1 0 1
    endloop
  endfacet
  facet normal 0 0 1
    outer loop
      vertex -1 0 1
      vertex 0 1 1
      vertex -1 1 1
    endloop
  endfacet
  facet normal 0 0 1
    outer loop
      vertex 0 1 1
      vertex -1 0 1
      vertex 1 0 1
    endloop
  endfacet
  facet normal 0 0 -1
    outer loop
      vertex -1.25 0 1
      vertex -2 0 1
      vertex -1.25 1 1
    endloop
  endfacet
  facet normal 0 0 -1
    outer loop
      vertex -1.25 1 1
      vertex -1 1.25 1
      vertex -1 1 1
    endloop
  endfacet
  facet normal 0 0 -1
    outer loop
      vertex -1.25 1 1
      vertex -2 1.25 1
      vertex -1 1.25 1
    endloop
  endfacet
  facet normal 0 0 -1
    outer loop
      vertex -2 1.25 1
      vertex -1.25 1 1
      vertex -2 0 1
    endloop
  endfacet
  facet normal 0 0 -1
    outer loop
      vertex 0 2 1
      vertex -0.25 2 1
      vertex 0 2.25 1
    endloop
  endfacet
  facet normal 0 0 -1
    outer loop
      vertex 0 2.25 1
      vertex 1 3 1
      vertex 1 2.25 1
    endloop
  endfacet
  facet normal 0 0 -1
    outer loop
      vertex 0 2.25 1
      vertex -0.25 3 1
      vertex 1 3 1
    endloop
  endfacet
  facet normal 0 0 -1
    outer loop
      vertex -0.25 3 1
      vertex 0 2.25 1
      vertex -0.25 2 1
    endloop
  endfacet
  facet normal -1 0 0
    outer loop
      vertex 1 1.25 -2
      vertex 1 1 -1.25
      vertex 1 1.25 -1
    endloop
  endfacet
  facet normal -1 0 0
    outer loop
      vertex 1 0 -2
      vertex 1 1 -1.25
      vertex 1 1.25 -2
    endloop
  endfacet
  facet normal -1 -0 0
    outer loop
      vertex 1 1 -1.25
      vertex 1 0 -2
      vertex 1 0 -1.25
    endloop
  endfacet
  facet normal -1 -0 0
    outer loop
      vertex 1 1.25 -1
      vertex 1 1 -1.25
      vertex 1 1 -1
    endloop
  endfacet
  facet normal 1 0 0
    outer loop
      vertex 1 2 1
      vertex 1 1 0
      vertex 1 2 0
    endloop
  endfacet
  facet normal 1 -0 0
    outer loop
      vertex 1 0 1
      vertex 1 1 0
      vertex 1 2 1
    endloop
  endfacet
  facet normal 1 0 0
    outer loop
      vertex 1 0 -1
      vertex 1 1 0
      vertex 1 0 1
    endloop
  endfacet
  facet normal 1 0 0
    outer loop
      vertex 1 1 0
      vertex 1 0 -1
      vertex 1 1 -1
    endloop
  endfacet
  facet normal -1 0 0
    outer loop
      vertex 1 3 -0.25
      vertex 1 2.25 0
      vertex 1 3 1
    endloop
  endfacet
  facet normal -1 0 0
    outer loop
      vertex 1 2 -0.25
      vertex 1 2.25 0
      vertex 1 3 -0.25
    endloop
  endfacet
  facet normal -1 -0 0
    outer loop
      vertex 1 2.25 0
      vertex 1 2 -0.25
      vertex 1 2 0
    endloop
  endfacet
  facet normal -1 -0 0
    outer loop
      vertex 1 3 1
      vertex 1 2.25 0
      vertex 1 2.25 1
    endloop
  endfacet
  facet normal 0 -1 0
    outer loop
      vertex -2 1 2
      vertex -2.25 1 3
      vertex -2.25 1 2
    endloop
  endfacet
  facet normal 0 -1 0
    outer loop
      vertex -1 1 2
      vertex -2.25 1 3
      vertex -2 1 2
    endloop
  endfacet
  facet normal 0 -1 0
    outer loop
      vertex -2.25 1 3
      vertex -1 1 2
      vertex 0 1 3
    endloop
  endfacet
  facet normal 0 -1 0
    outer loop
      vertex 0 1 1
      vertex -1 1 2
      vertex -1 1 1
    endloop
  endfacet
  facet normal 0 -1 0
    outer loop
      vertex -1 1 2
      vertex 0 1 1
      vertex 0 1 3
    endloop
  endfacet
  facet normal 0 1 0
    outer loop
      vertex 0 1 0.75
      vertex 0 1 0
      vertex -1 1 0.75
    endloop
  endfacet
  facet normal 0 1 -0
    outer loop
      vertex -1 1 0.75
      vertex -1.25 1 1
      vertex -1 1 1
    endloop
  endfacet
  facet normal 0 1 0
    outer loop
      vertex -1 1 0.75
      vertex -1.25 1 0
      vertex -1.25 1 1
    endloop
  endfacet
  facet normal 0 1 0
    outer loop
      vertex -1.25 1 0
      vertex -1 1 0.75
      vertex 0 1 0
    endloop
  endfacet
  facet normal 0 0 1
    outer loop
      vertex -1 -1 0
      vertex 0 0 0
      vertex -1 0 0
    endloop
  endfacet
  facet normal 0 0 1
    outer loop
      vertex 0 0 0
      vertex -1 -1 0
      vertex 0 -2 0
    endloop
  endfacet
  facet normal 0 0 1
    outer loop
      vertex -2.25 -2 0
      vertex -1 -1 0
      vertex -2 -1 0
    endloop
  endfacet
  facet normal 0 0 1
    outer loop
      vertex -2.25 -2 0
      vertex -2 -1 0
      vertex -2.25 -1 0
    endloop
  endfacet
  facet normal 0 0 1
    outer loop
      vertex -1 -1 0
      vertex -2.25 -2 0
      vertex 0 -2 0
    endloop
  endfacet
  facet normal 0 0 -1
    outer loop
      vertex -1 0 0
      vertex -1.25 0 0
      vertex -1 0.25 0
    endloop
  endfacet
  facet normal 0 0 -1
    outer loop
      vertex -1 0.25 0
      vertex 0 1 0
      vertex 0 0.25 0
    endloop
  endfacet
  facet normal 0 0 -1
    outer loop
      vertex -1 0.25 0
      vertex -1.25 1 0
      vertex 0 1 0
    endloop
  endfacet
  facet normal 0 0 -1
    outer loop
      vertex -1.25 1 0
      vertex -1 0.25 0
      vertex -1.25 0 0
    endloop
  endfacet
  facet normal 0 1 0
    outer loop
      vertex 1 0 -1.25
      vertex 1 0 -2
      vertex 0 0 -1.25
    endloop
  endfacet
  facet normal 0 1 -0
    outer loop
      vertex 0 0 -1.25
      vertex -0.25 0 -1
      vertex 0 0 -1
    endloop
  endfacet
  facet normal 0 1 0
    outer loop
      vertex 0 0 -1.25
      vertex -0.25 0 -2
      vertex -0.25 0 -1
    endloop
  endfacet
  facet normal 0 1 0
    outer loop
      vertex -0.25 0 -2
      vertex 0 0 -1.25
      vertex 1 0 -2
    endloop
  endfacet
  facet normal 0 -1 0
    outer loop
      vertex 0 0 0
      vertex -1 0 1
      vertex -1 0 0
    endloop
  endfacet
  facet normal 0 -1 0
    outer loop
      vertex -1 0 1
      vertex 0 0 0
      vertex 1 0 1
    endloop
  endfacet
  facet normal 0 -1 0
    outer loop
      vertex 1 0 -1
      vertex 0 0 0
      vertex 0 0 -1
    endloop
  endfacet
  facet normal 0 -1 0
    outer loop
      vertex 0 0 0
      vertex 1 0 -1
      vertex 1 0 1
    endloop
  endfacet
  facet normal 0 1 0
    outer loop
      vertex -1 0 0
      vertex -1 0 -0.25
      vertex -1.25 0 0
    endloop
  endfacet
  facet normal 0 1 -0
    outer loop
      vertex -1.25 0 0
      vertex -2 0 1
      vertex -1.25 0 1
    endloop
  endfacet
  facet normal 0 1 0
    outer loop
      vertex -1.25 0 0
      vertex -2 0 -0.25
      vertex -2 0 1
    endloop
  endfacet
  facet normal 0 1 0
    outer loop
      vertex -2 0 -0.25
      vertex -1.25 0 0
      vertex -1 0 -0.25
    endloop
  endfacet
  facet normal -1 0 0
    outer loop
      vertex -1.25 0 0
      vertex -1.25 1 1
      vertex -1.25 1 0
    endloop
  endfacet
  facet normal -1 -0 0
    outer loop
      vertex -1.25 1 1
      vertex -1.25 0 0
      vertex -1.25 0 1
    endloop
  endfacet
  facet normal 1 0 0
    outer loop
      vertex 0 3.25 3
      vertex 0 3 2
      vertex 0 3.25 2
    endloop
  endfacet
  facet normal 1 0 0
    outer loop
      vertex 0 3.25 3
      vertex 0 2 2
      vertex 0 3 2
    endloop
  endfacet
  facet normal 1 -0 0
    outer loop
      vertex 0 1 3
      vertex 0 2 2
      vertex 0 3.25 3
    endloop
  endfacet
  facet normal 1 0 0
    outer loop
      vertex 0 1 1
      vertex 0 2 2
      vertex 0 1 3
    endloop
  endfacet
  facet normal 1 0 0
    outer loop
      vertex 0 2 2
      vertex 0 1 1
      vertex 0 2 1
    endloop
  endfacet
  facet normal -1 0 0
    outer loop
      vertex 0 2.25 0
      vertex 0 2 0.75
      vertex 0 2.25 1
    endloop
  endfacet
  facet normal -1 0 0
    outer loop
      vertex 0 1 0
      vertex 0 2 0.75
      vertex 0 2.25 0
    endloop
  endfacet
  facet normal -1 -0 0
    outer loop
      vertex 0 2 0.75
      vertex 0 1 0
      vertex 0 1 0.75
    endloop
  endfacet
  facet normal -1 -0 0
    outer loop
      vertex 0 2.25 1
      vertex 0 2 0.75
      vertex 0 2 1
    endloop
  endfacet
  facet normal 0 0 1
    outer loop
      vertex 2 3 0
      vertex 3 3.25 0
      vertex 2 3.25 0
    endloop
  endfacet
  facet normal 0 0 1
    outer loop
      vertex 2 2 0
      vertex 3 3.25 0
      vertex 2 3 0
    endloop
  endfacet
  facet normal 0 0 1
    outer loop
      vertex 3 3.25 0
      vertex 2 2 0
      vertex 3 1 0
    endloop
  endfacet
  facet normal 0 0 1
    outer loop
      vertex 1 1 0
      vertex 2 2 0
      vertex 1 2 0
    endloop
  endfacet
  facet normal 0 0 1
    outer loop
      vertex 2 2 0
      vertex 1 1 0
      vertex 3 1 0
    endloop
  endfacet
  facet normal 0 0 -1
    outer loop
      vertex 0.75 1 0
      vertex 0 1 0
      vertex 0.75 2 0
    endloop
  endfacet
  facet normal 0 0 -1
    outer loop
      vertex 0.75 2 0
      vertex 1 2.25 0
      vertex 1 2 0
    endloop
  endfacet
  facet normal 0 0 -1
    outer loop
      vertex 0.75 2 0
      vertex 0 2.25 0
      vertex 1 2.25 0
    endloop
  endfacet
  facet normal 0 0 -1
    outer loop
      vertex 0 2.25 0
      vertex 0.75 2 0
      vertex 0 1 0
    endloop
  endfacet
  facet normal 0 1 -0
    outer loop
      vertex 1 2.25 0
      vertex 0 2.25 1
      vertex 1 2.25 1
    endloop
  endfacet
  facet normal 0 1 0
    outer loop
      vertex 0 2.25 1
      vertex 1 2.25 0
      vertex 0 2.25 0
    endloop
  endfacet
  facet normal 1 0 0
    outer loop
      vertex 0 0 0
      vertex 0 -1 -1
      vertex 0 0 -1
    endloop
  endfacet
  facet normal 1 0 0
    outer loop
      vertex 0 -2 -2.25
      vertex 0 -1 -2
      vertex 0 -1 -1
    endloop
  endfacet
  facet normal 1 -0 0
    outer loop
      vertex 0 -2 0
      vertex 0 -1 -1
      vertex 0 0 0
    endloop
  endfacet
  facet normal 1 0 0
    outer loop
      vertex 0 -2 -2.25
      vertex 0 -1 -1
      vertex 0 -2 0
    endloop
  endfacet
  facet normal 1 0 0
    outer loop
      vertex 0 -1 -2
      vertex 0 -2 -2.25
      vertex 0 -1 -2.25
    endloop
  endfacet
  facet normal -1 0 0
    outer loop
      vertex 0 1 -1.25
      vertex 0 0.25 -1
      vertex 0 1 0
    endloop
  endfacet
  facet normal -1 0 0
    outer loop
      vertex 0 0 -1.25
      vertex 0 0.25 -1
      vertex 0 1 -1.25
    endloop
  endfacet
  facet normal -1 -0 0
    outer loop
      vertex 0 0.25 -1
      vertex 0 0 -1.25
      vertex 0 0 -1
    endloop
  endfacet
  facet normal -1 -0 0
    outer loop
      vertex 0 1 0
      vertex 0 0.25 -1
      vertex 0 0.25 0
    endloop
  endfacet
  facet normal 0 0 -1
    outer loop
      vertex 0 0 -1.25
      vertex 1 1 -1.25
      vertex 1 0 -1.25
    endloop
  endfacet
  facet normal -0 0 -1
    outer loop
      vertex 1 1 -1.25
      vertex 0 0 -1.25
      vertex 0 1 -1.25
    endloop
  endfacet
  facet normal 0 -1 0
    outer loop
      vertex 2 1 -1
      vertex 1 1 0
      vertex 1 1 -1
    endloop
  endfacet
  facet normal 0 -1 0
    outer loop
      vertex 1 1 0
      vertex 2 1 -1
      vertex 3 1 0
    endloop
  endfacet
  facet normal 0 -1 0
    outer loop
      vertex 3 1 -2.25
      vertex 2 1 -1
      vertex 2 1 -2
    endloop
  endfacet
  facet normal 0 -1 0
    outer loop
      vertex 3 1 -2.25
      vertex 2 1 -2
      vertex 2 1 -2.25
    endloop
  endfacet
  facet normal 0 -1 0
    outer loop
      vertex 2 1 -1
      vertex 3 1 -2.25
      vertex 3 1 0
    endloop
  endfacet
  facet normal 0 1 0
    outer loop
      vertex 1 1 -1
      vertex 1 1 -1.25
      vertex 0.75 1 -1
    endloop
  endfacet
  facet normal 0 1 -0
    outer loop
      vertex 0.75 1 -1
      vertex 0 1 0
      vertex 0.75 1 0
    endloop
  endfacet
  facet normal 0 1 0
    outer loop
      vertex 0.75 1 -1
      vertex 0 1 -1.25
      vertex 0 1 0
    endloop
  endfacet
  facet normal 0 1 0
    outer loop
      vertex 0 1 -1.25
      vertex 0.75 1 -1
      vertex 1 1 -1.25
    endloop
  endfacet
  facet normal 0 0 1
    outer loop
      vertex -1 2 3
      vertex 0 3.25 3
      vertex -1 3.25 3
    endloop
  endfacet
  facet normal 0 0 1
    outer loop
      vertex 0 3.25 3
      vertex -1 2 3
      vertex 0 1 3
    endloop
  endfacet
  facet normal 0 0 1
    outer loop
      vertex -2.25 1 3
      vertex -1 2 3
      vertex -2.25 2 3
    endloop
  endfacet
  facet normal 0 0 1
    outer loop
      vertex -1 2 3
      vertex -2.25 1 3
      vertex 0 1 3
    endloop
  endfacet
  facet normal 0 1 -0
    outer loop
      vertex -1 2 2
      vertex -2.25 2 3
      vertex -1 2 3
    endloop
  endfacet
  facet normal 0 1 0
    outer loop
      vertex -2.25 2 3
      vertex -1 2 2
      vertex -2.25 2 2
    endloop
  endfacet
  facet normal 0 0 1
    outer loop
      vertex -2 0 2
      vertex -1 1 2
      vertex -2 1 2
    endloop
  endfacet
  facet normal 0 0 1
    outer loop
      vertex -1 1 2
      vertex -2 0 2
      vertex -1 -1 2
    endloop
  endfacet
  facet normal 0 0 1
    outer loop
      vertex -3.25 -1 2
      vertex -2 0 2
      vertex -3.25 0 2
    endloop
  endfacet
  facet normal 0 0 1
    outer loop
      vertex -2 0 2
      vertex -3.25 -1 2
      vertex -1 -1 2
    endloop
  endfacet
  facet normal 0 0 -1
    outer loop
      vertex -2 1 2
      vertex -2.25 1 2
      vertex -2 1.25 2
    endloop
  endfacet
  facet normal 0 0 -1
    outer loop
      vertex -2 1.25 2
      vertex -1 2 2
      vertex -1 1.25 2
    endloop
  endfacet
  facet normal 0 0 -1
    outer loop
      vertex -2 1.25 2
      vertex -2.25 2 2
      vertex -1 2 2
    endloop
  endfacet
  facet normal 0 0 -1
    outer loop
      vertex -2.25 2 2
      vertex -2 1.25 2
      vertex -2.25 1 2
    endloop
  endfacet
  facet normal -1 0 0
    outer loop
      vertex -2.25 1 2
      vertex -2.25 2 3
      vertex -2.25 2 2
    endloop
  endfacet
  facet normal -1 -0 0
    outer loop
      vertex -2.25 2 3
      vertex -2.25 1 2
      vertex -2.25 1 3
    endloop
  endfacet
  facet normal -1 0 0
    outer loop
      vertex -1 2 2
      vertex -1 3.25 3
      vertex -1 3.25 2
    endloop
  endfacet
  facet normal -1 -0 0
    outer loop
      vertex -1 3.25 3
      vertex -1 2 2
      vertex -1 2 3
    endloop
  endfacet
  facet normal 0 0 1
    outer loop
      vertex 1 3 2
      vertex 2 4.25 2
      vertex 1 4.25 2
    endloop
  endfacet
  facet normal 0 0 1
    outer loop
      vertex 2 4.25 2
      vertex 1 3 2
      vertex 2 2 2
    endloop
  endfacet
  facet normal 0 0 1
    outer loop
      vertex 0 2 2
      vertex 1 3 2
      vertex 0 3 2
    endloop
  endfacet
  facet normal 0 0 1
    outer loop
      vertex 1 3 2
      vertex 0 2 2
      vertex 2 2 2
    endloop
  endfacet
  facet normal 0 0 -1
    outer loop
      vertex -0.25 2 2
      vertex -1 2 2
      vertex -0.25 3 2
    endloop
  endfacet
  facet normal 0 0 -1
    outer loop
      vertex -0.25 3 2
      vertex 0 3.25 2
      vertex 0 3 2
    endloop
  endfacet
  facet normal 0 0 -1
    outer loop
      vertex -0.25 3 2
      vertex -1 3.25 2
      vertex 0 3.25 2
    endloop
  endfacet
  facet normal 0 0 -1
    outer loop
      vertex -1 3.25 2
      vertex -0.25 3 2
      vertex -1 2 2
    endloop
  endfacet
  facet normal 0 1 -0
    outer loop
      vertex 0 3.25 2
      vertex -1 3.25 3
      vertex 0 3.25 3
    endloop
  endfacet
  facet normal 0 1 0
    outer loop
      vertex -1 3.25 3
      vertex 0 3.25 2
      vertex -1 3.25 2
    endloop
  endfacet
  facet normal -1 0 0
    outer loop
      vertex -1 0.25 -1
      vertex -1 0 -0.25
      vertex -1 0.25 0
    endloop
  endfacet
  facet normal -1 0 0
    outer loop
      vertex -1 -1 -1
      vertex -1 0 -0.25
      vertex -1 0.25 -1
    endloop
  endfacet
  facet normal -1 -0 0
    outer loop
      vertex -1 0 -0.25
      vertex -1 -1 -1
      vertex -1 -1 -0.25
    endloop
  endfacet
  facet normal -1 -0 0
    outer loop
      vertex -1 0.25 0
      vertex -1 0 -0.25
      vertex -1 0 0
    endloop
  endfacet
  facet normal 1 0 0
    outer loop
      vertex -1 1 2
      vertex -1 0 1
      vertex -1 1 1
    endloop
  endfacet
  facet normal 1 -0 0
    outer loop
      vertex -1 -1 2
      vertex -1 0 1
      vertex -1 1 2
    endloop
  endfacet
  facet normal 1 0 0
    outer loop
      vertex -1 -1 0
      vertex -1 0 1
      vertex -1 -1 2
    endloop
  endfacet
  facet normal 1 0 0
    outer loop
      vertex -1 0 1
      vertex -1 -1 0
      vertex -1 0 0
    endloop
  endfacet
  facet normal -1 0 0
    outer loop
      vertex -1 2 0.75
      vertex -1 1.25 1
      vertex -1 2 2
    endloop
  endfacet
  facet normal -1 0 0
    outer loop
      vertex -1 1 0.75
      vertex -1 1.25 1
      vertex -1 2 0.75
    endloop
  endfacet
  facet normal -1 -0 0
    outer loop
      vertex -1 1.25 1
      vertex -1 1 0.75
      vertex -1 1 1
    endloop
  endfacet
  facet normal -1 -0 0
    outer loop
      vertex -1 2 2
      vertex -1 1.25 1
      vertex -1 1.25 2
    endloop
  endfacet
  facet normal 0 0 -1
    outer loop
      vertex -1 1 0.75
      vertex 0 2 0.75
      vertex 0 1 0.75
    endloop
  endfacet
  facet normal -0 0 -1
    outer loop
      vertex 0 2 0.75
      vertex -1 1 0.75
      vertex -1 2 0.75
    endloop
  endfacet
  facet normal 0 1 0
    outer loop
      vertex 2 2 -0.25
      vertex 2 2 -1
      vertex 1 2 -0.25
    endloop
  endfacet
  facet normal 0 1 -0
    outer loop
      vertex 1 2 -0.25
      vertex 0.75 2 0
      vertex 1 2 0
    endloop
  endfacet
  facet normal 0 1 0
    outer loop
      vertex 1 2 -0.25
      vertex 0.75 2 -1
      vertex 0.75 2 0
    endloop
  endfacet
  facet normal 0 1 0
    outer loop
      vertex 0.75 2 -1
      vertex 1 2 -0.25
      vertex 2 2 -1
    endloop
  endfacet
  facet normal 0 -1 0
    outer loop
      vertex 1 2 1
      vertex 0 2 2
      vertex 0 2 1
    endloop
  endfacet
  facet normal 0 -1 0
    outer loop
      vertex 0 2 2
      vertex 1 2 1
      vertex 2 2 2
    endloop
  endfacet
  facet normal 0 -1 0
    outer loop
      vertex 2 2 0
      vertex 1 2 1
      vertex 1 2 0
    endloop
  endfacet
  facet normal 0 -1 0
    outer loop
      vertex 1 2 1
      vertex 2 2 0
      vertex 2 2 2
    endloop
  endfacet
  facet normal 0 1 0
    outer loop
      vertex 0 2 1
      vertex 0 2 0.75
      vertex -0.25 2 1
    endloop
  endfacet
  facet normal 0 1 -0
    outer loop
      vertex -0.25 2 1
      vertex -1 2 2
      vertex -0.25 2 2
    endloop
  endfacet
  facet normal 0 1 0
    outer loop
      vertex -0.25 2 1
      vertex -1 2 0.75
      vertex -1 2 2
    endloop
  endfacet
  facet normal 0 1 0
    outer loop
      vertex -1 2 0.75
      vertex -0.25 2 1
      vertex 0 2 0.75
    endloop
  endfacet
  facet normal -1 0 0
    outer loop
      vertex 2 3.25 -1
      vertex 2 3 -0.25
      vertex 2 3.25 0
    endloop
  endfacet
  facet normal -1 0 0
    outer loop
      vertex 2 2 -1
      vertex 2 3 -0.25
      vertex 2 3.25 -1
    endloop
  endfacet
  facet normal -1 -0 0
    outer loop
      vertex 2 3 -0.25
      vertex 2 2 -1
      vertex 2 2 -0.25
    endloop
  endfacet
  facet normal -1 -0 0
    outer loop
      vertex 2 3.25 0
      vertex 2 3 -0.25
      vertex 2 3 0
    endloop
  endfacet
  facet normal 1 0 0
    outer loop
      vertex 2 4.25 2
      vertex 2 3 1
      vertex 2 4.25 1
    endloop
  endfacet
  facet normal 1 -0 0
    outer loop
      vertex 2 2 2
      vertex 2 3 1
      vertex 2 4.25 2
    endloop
  endfacet
  facet normal 1 0 0
    outer loop
      vertex 2 2 0
      vertex 2 3 1
      vertex 2 2 2
    endloop
  endfacet
  facet normal 1 0 0
    outer loop
      vertex 2 3 1
      vertex 2 2 0
      vertex 2 3 0
    endloop
  endfacet
  facet normal 0 1 -0
    outer loop
      vertex 1 3 1
      vertex 0 3 2
      vertex 1 3 2
    endloop
  endfacet
  facet normal 0 1 0
    outer loop
      vertex -0.25 3 1
      vertex 0 3 2
      vertex 1 3 1
    endloop
  endfacet
  facet normal 0 1 0
    outer loop
      vertex 0 3 2
      vertex -0.25 3 1
      vertex -0.25 3 2
    endloop
  endfacet
  facet normal -1 0 0
    outer loop
      vertex -0.25 2 1
      vertex -0.25 3 2
      vertex -0.25 3 1
    endloop
  endfacet
  facet normal -1 -0 0
    outer loop
      vertex -0.25 3 2
      vertex -0.25 2 1
      vertex -0.25 2 2
    endloop
  endfacet
  facet normal -1 0 0
    outer loop
      vertex 1 3 1
      vertex 1 4.25 2
      vertex 1 4.25 1
    endloop
  endfacet
  facet normal -1 -0 0
    outer loop
      vertex 1 4.25 2
      vertex 1 3 1
      vertex 1 3 2
    endloop
  endfacet
  facet normal 0 0 -1
    outer loop
      vertex 1 3 1
      vertex 2 4.25 1
      vertex 2 3 1
    endloop
  endfacet
  facet normal -0 0 -1
    outer loop
      vertex 2 4.25 1
      vertex 1 3 1
      vertex 1 4.25 1
    endloop
  endfacet
  facet normal 0 1 -0
    outer loop
      vertex 2 4.25 1
      vertex 1 4.25 2
      vertex 2 4.25 2
    endloop
  endfacet
  facet normal 0 1 0
    outer loop
      vertex 1 4.25 2
      vertex 2 4.25 1
      vertex 1 4.25 1
    endloop
  endfacet
  facet normal 0 0 -1
    outer loop
      vertex 1 2 -0.25
      vertex 2 3 -0.25
      vertex 2 2 -0.25
    endloop
  endfacet
  facet normal -0 0 -1
    outer loop
      vertex 2 3 -0.25
      vertex 1 2 -0.25
      vertex 1 3 -0.25
    endloop
  endfacet
  facet normal 0 1 -0
    outer loop
      vertex 2 3 0
      vertex 1 3 1
      vertex 2 3 1
    endloop
  endfacet
  facet normal 0 1 0
    outer loop
      vertex 1 3 -0.25
      vertex 2 3 0
      vertex 2 3 -0.25
    endloop
  endfacet
  facet normal 0 1 0
    outer loop
      vertex 2 3 0
      vertex 1 3 -0.25
      vertex 1 3 1
    endloop
  endfacet
  facet normal 0 1 -0
    outer loop
      vertex -2 0 1
      vertex -3.25 0 2
      vertex -2 0 2
    endloop
  endfacet
  facet normal 0 1 0
    outer loop
      vertex -3.25 0 2
      vertex -2 0 1
      vertex -3.25 0 1
    endloop
  endfacet
  facet normal 0 0 -1
    outer loop
      vertex -3.25 -1 1
      vertex -2 0 1
      vertex -2 -1 1
    endloop
  endfacet
  facet normal -0 0 -1
    outer loop
      vertex -2 0 1
      vertex -3.25 -1 1
      vertex -3.25 0 1
    endloop
  endfacet
  facet normal 0 1 0
    outer loop
      vertex -1 -1 -0.25
      vertex -1 -1 -1
      vertex -2 -1 -0.25
    endloop
  endfacet
  facet normal 0 1 -0
    outer loop
      vertex -2 -1 -0.25
      vertex -2.25 -1 0
      vertex -2 -1 0
    endloop
  endfacet
  facet normal 0 1 0
    outer loop
      vertex -2 -1 -0.25
      vertex -2.25 -1 -1
      vertex -2.25 -1 0
    endloop
  endfacet
  facet normal 0 1 0
    outer loop
      vertex -2.25 -1 -1
      vertex -2 -1 -0.25
      vertex -1 -1 -1
    endloop
  endfacet
  facet normal 0 -1 0
    outer loop
      vertex -2 -1 1
      vertex -3.25 -1 2
      vertex -3.25 -1 1
    endloop
  endfacet
  facet normal 0 -1 0
    outer loop
      vertex -3.25 -1 2
      vertex -2 -1 1
      vertex -1 -1 2
    endloop
  endfacet
  facet normal 0 -1 0
    outer loop
      vertex -1 -1 0
      vertex -2 -1 1
      vertex -2 -1 0
    endloop
  endfacet
  facet normal 0 -1 0
    outer loop
      vertex -2 -1 1
      vertex -1 -1 0
      vertex -1 -1 2
    endloop
  endfacet
  facet normal -1 0 0
    outer loop
      vertex -3.25 -1 1
      vertex -3.25 0 2
      vertex -3.25 0 1
    endloop
  endfacet
  facet normal -1 -0 0
    outer loop
      vertex -3.25 0 2
      vertex -3.25 -1 1
      vertex -3.25 -1 2
    endloop
  endfacet
  facet normal -1 0 0
    outer loop
      vertex -2 1.25 1
      vertex -2 1 2
      vertex -2 1.25 2
    endloop
  endfacet
  facet normal -1 0 0
    outer loop
      vertex -2 0 1
      vertex -2 1 2
      vertex -2 1.25 1
    endloop
  endfacet
  facet normal -1 -0 0
    outer loop
      vertex -2 1 2
      vertex -2 0 1
      vertex -2 0 2
    endloop
  endfacet
  facet normal 0 1 -0
    outer loop
      vertex -1 1.25 1
      vertex -2 1.25 2
      vertex -1 1.25 2
    endloop
  endfacet
  facet normal 0 1 0
    outer loop
      vertex -2 1.25 2
      vertex -1 1.25 1
      vertex -2 1.25 1
    endloop
  endfacet
  facet normal -1 0 0
    outer loop
      vertex -2 -1 0
      vertex -2 0 -0.25
      vertex -2 -1 -0.25
    endloop
  endfacet
  facet normal -1 0 0
    outer loop
      vertex -2 0 -0.25
      vertex -2 -1 0
      vertex -2 0 1
    endloop
  endfacet
  facet normal -1 -0 0
    outer loop
      vertex -2 0 1
      vertex -2 -1 0
      vertex -2 -1 1
    endloop
  endfacet
  facet normal 0 0 -1
    outer loop
      vertex -2 -1 -0.25
      vertex -1 0 -0.25
      vertex -1 -1 -0.25
    endloop
  endfacet
  facet normal -0 0 -1
    outer loop
      vertex -1 0 -0.25
      vertex -2 -1 -0.25
      vertex -2 0 -0.25
    endloop
  endfacet
  facet normal 0 0 -1
    outer loop
      vertex -2.25 -2 -1
      vertex -1 -1 -1
      vertex -1 -2 -1
    endloop
  endfacet
  facet normal -0 0 -1
    outer loop
      vertex -1 -1 -1
      vertex -2.25 -2 -1
      vertex -2.25 -1 -1
    endloop
  endfacet
  facet normal 0 -1 0
    outer loop
      vertex -1 -2 -1
      vertex -2.25 -2 0
      vertex -2.25 -2 -1
    endloop
  endfacet
  facet normal 0 -1 0
    outer loop
      vertex -2.25 -2 0
      vertex -1 -2 -1
      vertex 0 -2 0
    endloop
  endfacet
  facet normal 0 -1 0
    outer loop
      vertex 0 -2 -2.25
      vertex -1 -2 -1
      vertex -1 -2 -2.25
    endloop
  endfacet
  facet normal 0 -1 0
    outer loop
      vertex -1 -2 -1
      vertex 0 -2 -2.25
      vertex 0 -2 0
    endloop
  endfacet
  facet normal -1 0 0
    outer loop
      vertex -2.25 -2 -1
      vertex -2.25 -1 0
      vertex -2.25 -1 -1
    endloop
  endfacet
  facet normal -1 -0 0
    outer loop
      vertex -2.25 -1 0
      vertex -2.25 -2 -1
      vertex -2.25 -2 0
    endloop
  endfacet
  facet normal 0 0 1
    outer loop
      vertex 1 0 -1
      vertex 2 1 -1
      vertex 1 1 -1
    endloop
  endfacet
  facet normal 0 0 1
    outer loop
      vertex 2 1 -1
      vertex 1 0 -1
      vertex 2 -1 -1
    endloop
  endfacet
  facet normal 0 0 1
    outer loop
      vertex 0 -1 -1
      vertex 1 0 -1
      vertex 0 0 -1
    endloop
  endfacet
  facet normal 0 0 1
    outer loop
      vertex 1 0 -1
      vertex 0 -1 -1
      vertex 2 -1 -1
    endloop
  endfacet
  facet normal 0 0 -1
    outer loop
      vertex 1 1 -1
      vertex 0.75 1 -1
      vertex 1 1.25 -1
    endloop
  endfacet
  facet normal 0 0 -1
    outer loop
      vertex 1 1.25 -1
      vertex 2 2 -1
      vertex 2 1.25 -1
    endloop
  endfacet
  facet normal 0 0 -1
    outer loop
      vertex 1 1.25 -1
      vertex 0.75 2 -1
      vertex 2 2 -1
    endloop
  endfacet
  facet normal 0 0 -1
    outer loop
      vertex 0.75 2 -1
      vertex 1 1.25 -1
      vertex 0.75 1 -1
    endloop
  endfacet
  facet normal 0 0 -1
    outer loop
      vertex -0.25 -1 -1
      vertex -1 -1 -1
      vertex -0.25 0 -1
    endloop
  endfacet
  facet normal 0 0 -1
    outer loop
      vertex -0.25 0 -1
      vertex 0 0.25 -1
      vertex 0 0 -1
    endloop
  endfacet
  facet normal 0 0 -1
    outer loop
      vertex -0.25 0 -1
      vertex -1 0.25 -1
      vertex 0 0.25 -1
    endloop
  endfacet
  facet normal 0 0 -1
    outer loop
      vertex -1 0.25 -1
      vertex -0.25 0 -1
      vertex -1 -1 -1
    endloop
  endfacet
  facet normal 0 1 -0
    outer loop
      vertex 0 0.25 -1
      vertex -1 0.25 0
      vertex 0 0.25 0
    endloop
  endfacet
  facet normal 0 1 0
    outer loop
      vertex -1 0.25 0
      vertex 0 0.25 -1
      vertex -1 0.25 -1
    endloop
  endfacet
  facet normal -1 0 0
    outer loop
      vertex -1 -2 -2.25
      vertex -1 -1 -1
      vertex -1 -1 -2.25
    endloop
  endfacet
  facet normal -1 -0 0
    outer loop
      vertex -1 -1 -1
      vertex -1 -2 -2.25
      vertex -1 -2 -1
    endloop
  endfacet
  facet normal 0 0 -1
    outer loop
      vertex -1 -2 -2.25
      vertex 0 -1 -2.25
      vertex 0 -2 -2.25
    endloop
  endfacet
  facet normal -0 0 -1
    outer loop
      vertex 0 -1 -2.25
      vertex -1 -2 -2.25
      vertex -1 -1 -2.25
    endloop
  endfacet
  facet normal 0 -1 0
    outer loop
      vertex 1 -1 -2
      vertex 0 -1 -1
      vertex 0 -1 -2
    endloop
  endfacet
  facet normal 0 -1 0
    outer loop
      vertex 0 -1 -1
      vertex 1 -1 -2
      vertex 2 -1 -1
    endloop
  endfacet
  facet normal 0 -1 0
    outer loop
      vertex 2 -1 -3.25
      vertex 1 -1 -2
      vertex 1 -1 -3.25
    endloop
  endfacet
  facet normal 0 -1 0
    outer loop
      vertex 1 -1 -2
      vertex 2 -1 -3.25
      vertex 2 -1 -1
    endloop
  endfacet
  facet normal 0 1 0
    outer loop
      vertex 0 -1 -2
      vertex 0 -1 -2.25
      vertex -0.25 -1 -2
    endloop
  endfacet
  facet normal 0 1 -0
    outer loop
      vertex -0.25 -1 -2
      vertex -1 -1 -1
      vertex -0.25 -1 -1
    endloop
  endfacet
  facet normal 0 1 0
    outer loop
      vertex -0.25 -1 -2
      vertex -1 -1 -2.25
      vertex -1 -1 -1
    endloop
  endfacet
  facet normal 0 1 0
    outer loop
      vertex -1 -1 -2.25
      vertex -0.25 -1 -2
      vertex 0 -1 -2.25
    endloop
  endfacet
  facet normal 1 0 0
    outer loop
      vertex 3 3.25 0
      vertex 3 2 -1
      vertex 3 3.25 -1
    endloop
  endfacet
  facet normal 1 -0 0
    outer loop
      vertex 3 1 0
      vertex 3 2 -1
      vertex 3 3.25 0
    endloop
  endfacet
  facet normal 1 0 0
    outer loop
      vertex 3 1 -2.25
      vertex 3 2 -1
      vertex 3 1 0
    endloop
  endfacet
  facet normal 1 0 0
    outer loop
      vertex 3 2 -1
      vertex 3 1 -2.25
      vertex 3 2 -2.25
    endloop
  endfacet
  facet normal -1 0 0
    outer loop
      vertex 0.75 1 -1
      vertex 0.75 2 0
      vertex 0.75 2 -1
    endloop
  endfacet
  facet normal -1 -0 0
    outer loop
      vertex 0.75 2 0
      vertex 0.75 1 -1
      vertex 0.75 1 0
    endloop
  endfacet
  facet normal 0 0 -1
    outer loop
      vertex 2 2 -1
      vertex 3 3.25 -1
      vertex 3 2 -1
    endloop
  endfacet
  facet normal -0 0 -1
    outer loop
      vertex 3 3.25 -1
      vertex 2 2 -1
      vertex 2 3.25 -1
    endloop
  endfacet
  facet normal 0 1 -0
    outer loop
      vertex 3 3.25 -1
      vertex 2 3.25 0
      vertex 3 3.25 0
    endloop
  endfacet
  facet normal 0 1 0
    outer loop
      vertex 2 3.25 0
      vertex 3 3.25 -1
      vertex 2 3.25 -1
    endloop
  endfacet
  facet normal 1 0 0
    outer loop
      vertex 2 1 -1
      vertex 2 0 -2
      vertex 2 1 -2
    endloop
  endfacet
  facet normal 1 -0 0
    outer loop
      vertex 2 -1 -1
      vertex 2 0 -2
      vertex 2 1 -1
    endloop
  endfacet
  facet normal 1 0 0
    outer loop
      vertex 2 -1 -3.25
      vertex 2 0 -2
      vertex 2 -1 -1
    endloop
  endfacet
  facet normal 1 0 0
    outer loop
      vertex 2 0 -2
      vertex 2 -1 -3.25
      vertex 2 0 -3.25
    endloop
  endfacet
  facet normal -1 0 0
    outer loop
      vertex 2 2 -2.25
      vertex 2 1.25 -2
      vertex 2 2 -1
    endloop
  endfacet
  facet normal -1 0 0
    outer loop
      vertex 2 1 -2.25
      vertex 2 1.25 -2
      vertex 2 2 -2.25
    endloop
  endfacet
  facet normal -1 -0 0
    outer loop
      vertex 2 1.25 -2
      vertex 2 1 -2.25
      vertex 2 1 -2
    endloop
  endfacet
  facet normal -1 -0 0
    outer loop
      vertex 2 2 -1
      vertex 2 1.25 -2
      vertex 2 1.25 -1
    endloop
  endfacet
  facet normal 0 0 -1
    outer loop
      vertex 2 1 -2.25
      vertex 3 2 -2.25
      vertex 3 1 -2.25
    endloop
  endfacet
  facet normal -0 0 -1
    outer loop
      vertex 3 2 -2.25
      vertex 2 1 -2.25
      vertex 2 2 -2.25
    endloop
  endfacet
  facet normal 0 1 -0
    outer loop
      vertex 3 2 -2.25
      vertex 2 2 -1
      vertex 3 2 -1
    endloop
  endfacet
  facet normal 0 1 0
    outer loop
      vertex 2 2 -1
      vertex 3 2 -2.25
      vertex 2 2 -2.25
    endloop
  endfacet
  facet normal 0 0 -1
    outer loop
      vertex 0 -1 -2
      vertex 1 0 -2
      vertex 1 -1 -2
    endloop
  endfacet
  facet normal 0 0 -1
    outer loop
      vertex -0.25 0 -2
      vertex 0 -1 -2
      vertex -0.25 -1 -2
    endloop
  endfacet
  facet normal 0 0 -1
    outer loop
      vertex 0 -1 -2
      vertex -0.25 0 -2
      vertex 1 0 -2
    endloop
  endfacet
  facet normal -1 0 0
    outer loop
      vertex -0.25 -1 -2
      vertex -0.25 0 -1
      vertex -0.25 0 -2
    endloop
  endfacet
  facet normal -1 -0 0
    outer loop
      vertex -0.25 0 -1
      vertex -0.25 -1 -2
      vertex -0.25 -1 -1
    endloop
  endfacet
  facet normal 0 0 -1
    outer loop
      vertex 1 0 -2
      vertex 2 1 -2
      vertex 2 0 -2
    endloop
  endfacet
  facet normal 0 0 -1
    outer loop
      vertex 1 1.25 -2
      vertex 2 1 -2
      vertex 1 0 -2
    endloop
  endfacet
  facet normal 0 0 -1
    outer loop
      vertex 2 1 -2
      vertex 1 1.25 -2
      vertex 2 1.25 -2
    endloop
  endfacet
  facet normal 0 1 -0
    outer loop
      vertex 2 1.25 -2
      vertex 1 1.25 -1
      vertex 2 1.25 -1
    endloop
  endfacet
  facet normal 0 1 0
    outer loop
      vertex 1 1.25 -1
      vertex 2 1.25 -2
      vertex 1 1.25 -2
    endloop
  endfacet
  facet normal -1 0 0
    outer loop
      vertex 1 -1 -3.25
      vertex 1 0 -2
      vertex 1 0 -3.25
    endloop
  endfacet
  facet normal -1 -0 0
    outer loop
      vertex 1 0 -2
      vertex 1 -1 -3.25
      vertex 1 -1 -2
    endloop
  endfacet
  facet normal 0 0 -1
    outer loop
      vertex 1 -1 -3.25
      vertex 2 0 -3.25
      vertex 2 -1 -3.25
    endloop
  endfacet
  facet normal -0 0 -1
    outer loop
      vertex 2 0 -3.25
      vertex 1 -1 -3.25
      vertex 1 0 -3.25
    endloop
  endfacet
  facet normal 0 1 -0
    outer loop
      vertex 2 0 -3.25
      vertex 1 0 -2
      vertex 2 0 -2
    endloop
  endfacet
  facet normal 0 1 0
    outer loop
      vertex 1 0 -2
      vertex 2 0 -3.25
      vertex 1 0 -3.25
    endloop
  endfacet
endsolid OpenSCAD_Model
